<svg width="44" height="31" viewBox="0 0 44 31" fill="none" xmlns="http://www.w3.org/2000/svg">
<path d="M9.73125 0V10.3333M34.2646 0V10.3333M8.19792 15.5H17.3979M35.7979 15.5H26.5979M8.19792 21.7H17.3979M26.5979 21.7H35.7979M3.59792 5.16667H40.3979C41.2112 5.16667 41.9913 5.3844 42.5664 5.77198C43.1415 6.15955 43.4646 6.68522 43.4646 7.23333V27.9C43.4646 28.4481 43.1415 28.9738 42.5664 29.3614C41.9913 29.7489 41.2112 29.9667 40.3979 29.9667H3.59792C2.78459 29.9667 2.00457 29.7489 1.42946 29.3614C0.854344 28.9738 0.53125 28.4481 0.53125 27.9V7.23333C0.53125 6.68522 0.854344 6.15955 1.42946 5.77198C2.00457 5.3844 2.78459 5.16667 3.59792 5.16667Z" stroke="#07235B"/>
</svg>
