<svg width="14" height="18" viewBox="0 0 14 18" fill="none" xmlns="http://www.w3.org/2000/svg">
<path fill-rule="evenodd" clip-rule="evenodd" d="M2.51859 1.69425C3.6034 0.60944 5.07472 0 6.60887 0C8.14303 0 9.61434 0.60944 10.6992 1.69425C11.784 2.77906 12.3934 4.25038 12.3934 5.78453C12.3934 7.31868 11.784 8.79 10.6992 9.87481L6.60887 13.9651L2.51859 9.87481C1.98141 9.33769 1.5553 8.70001 1.26457 7.9982C0.973852 7.29638 0.824219 6.54418 0.824219 5.78453C0.824219 5.02488 0.973852 4.27268 1.26457 3.57086C1.5553 2.86905 1.98141 2.23137 2.51859 1.69425ZM6.60887 7.43717C7.04718 7.43717 7.46754 7.26305 7.77746 6.95312C8.08739 6.64319 8.26151 6.22284 8.26151 5.78453C8.26151 5.34622 8.08739 4.92587 7.77746 4.61594C7.46754 4.30601 7.04718 4.13189 6.60887 4.13189C6.17057 4.13189 5.75021 4.30601 5.44028 4.61594C5.13035 4.92587 4.95623 5.34622 4.95623 5.78453C4.95623 6.22284 5.13035 6.64319 5.44028 6.95312C5.75021 7.26305 6.17057 7.43717 6.60887 7.43717Z" fill="#07235B"/>
<path d="M13.2211 14.1878C13.2211 16.014 10.2629 17.4931 6.61056 17.4931C2.95822 17.4931 0 16.014 0 14.1878C0 13.1218 1.00811 12.1716 2.56985 11.5684L3.0987 12.3203C2.20627 12.6922 1.65264 13.2045 1.65264 13.7746C1.65264 14.915 3.87544 15.8404 6.61056 15.8404C9.34567 15.8404 11.5685 14.915 11.5685 13.7746C11.5685 13.2045 11.0148 12.6922 10.1224 12.3203L10.6513 11.5684C12.213 12.1716 13.2211 13.1218 13.2211 14.1878Z" fill="#07235B"/>
</svg>
