<svg width="37" height="35" viewBox="0 0 37 35" fill="none" xmlns="http://www.w3.org/2000/svg">
<path fill-rule="evenodd" clip-rule="evenodd" d="M0.21875 1.96484C0.21875 1.18819 0.84835 0.558594 1.625 0.558594H28.3438C29.1204 0.558594 29.75 1.18819 29.75 1.96484C29.75 2.74149 29.1204 3.37109 28.3438 3.37109H1.625C0.84835 3.37109 0.21875 2.74149 0.21875 1.96484ZM0.21875 10.4023C0.21875 9.62569 0.84835 8.99609 1.625 8.99609H19.9062C20.6829 8.99609 21.3125 9.62569 21.3125 10.4023C21.3125 11.179 20.6829 11.8086 19.9062 11.8086H1.625C0.84835 11.8086 0.21875 11.179 0.21875 10.4023ZM28.3438 8.99609C29.1204 8.99609 29.75 9.62569 29.75 10.4023V29.5074L34.3806 24.8767C34.9298 24.3275 35.8202 24.3275 36.3694 24.8767C36.9185 25.4259 36.9185 26.3163 36.3694 26.8655L29.3381 33.8967C28.7889 34.4459 27.8986 34.4459 27.3494 33.8967L20.3181 26.8655C19.769 26.3163 19.769 25.4259 20.3181 24.8767C20.8673 24.3275 21.7577 24.3275 22.3069 24.8767L26.9375 29.5074V10.4023C26.9375 9.62569 27.5671 8.99609 28.3438 8.99609ZM0.21875 18.8398C0.21875 18.0632 0.84835 17.4336 1.625 17.4336H19.9062C20.6829 17.4336 21.3125 18.0632 21.3125 18.8398C21.3125 19.6165 20.6829 20.2461 19.9062 20.2461H1.625C0.84835 20.2461 0.21875 19.6165 0.21875 18.8398Z" fill="white"/>
</svg>
