<svg width="28" height="30" viewBox="0 0 28 30" fill="none" xmlns="http://www.w3.org/2000/svg">
<path d="M1.54688 28.3327C1.54688 23.1727 6.68021 18.9993 13.0002 18.9993M26.3335 28.3327L25.0002 26.9993M13.0002 14.9993C14.7683 14.9993 16.464 14.297 17.7143 13.0467C18.9645 11.7965 19.6669 10.1008 19.6669 8.33268C19.6669 6.56457 18.9645 4.86888 17.7143 3.61864C16.464 2.36839 14.7683 1.66602 13.0002 1.66602C11.2321 1.66602 9.53641 2.36839 8.28616 3.61864C7.03592 4.86888 6.33354 6.56457 6.33354 8.33268C6.33354 10.1008 7.03592 11.7965 8.28616 13.0467C9.53641 14.297 11.2321 14.9993 13.0002 14.9993ZM21.2669 27.5327C22.3985 27.5327 23.4837 27.0832 24.2839 26.283C25.084 25.4828 25.5335 24.3976 25.5335 23.266C25.5335 22.1344 25.084 21.0492 24.2839 20.249C23.4837 19.4489 22.3985 18.9993 21.2669 18.9993C20.1353 18.9993 19.05 19.4489 18.2499 20.249C17.4497 21.0492 17.0002 22.1344 17.0002 23.266C17.0002 24.3976 17.4497 25.4828 18.2499 26.283C19.05 27.0832 20.1353 27.5327 21.2669 27.5327Z" stroke="#07235B" stroke-width="2.66667" stroke-linecap="round" stroke-linejoin="round"/>
</svg>
