<svg width="15" height="15" viewBox="0 0 15 15" fill="none" xmlns="http://www.w3.org/2000/svg">
<path fill-rule="evenodd" clip-rule="evenodd" d="M9.14142 2.35919C10.1359 2.3692 11.0857 2.77387 11.7819 3.48417C12.478 4.19447 12.8635 5.15223 12.8535 6.14674C12.8435 7.14125 12.4388 8.09105 11.7285 8.7872C11.0182 9.48335 10.0605 9.86882 9.06594 9.85881C8.07143 9.8488 7.12163 9.44413 6.42548 8.73383C5.72933 8.02352 5.34386 7.06577 5.35387 6.07126C5.36388 5.07675 5.76855 4.12694 6.47885 3.4308C7.18915 2.73465 8.14691 2.34918 9.14142 2.35919ZM14.3534 6.16184C14.3618 5.33032 14.1725 4.50871 13.8012 3.76467C13.4299 3.02063 12.8871 2.37543 12.2176 1.8822C11.5481 1.38898 10.7711 1.06185 9.95039 0.927736C9.12972 0.793624 8.28893 0.856373 7.49726 1.11082C6.70559 1.36526 5.98568 1.80412 5.39682 2.39125C4.80796 2.97839 4.36699 3.697 4.11023 4.48792C3.85346 5.27884 3.78824 6.11944 3.91994 6.9405C4.05164 7.76156 4.3765 8.53959 4.86775 9.21052L1.0037 12.9968C0.861561 13.136 0.780544 13.326 0.778472 13.5249C0.776399 13.7239 0.85344 13.9155 0.992648 14.0576C1.13186 14.1998 1.32183 14.2808 1.52077 14.2829C1.71971 14.2849 1.91133 14.2079 2.05347 14.0687L5.91677 10.2824C6.69122 10.874 7.61504 11.2383 8.58481 11.3346C9.55458 11.4309 10.532 11.2554 11.4077 10.8277C12.2834 10.4 13.0227 9.73705 13.543 8.91299C14.0632 8.08893 14.3439 7.13633 14.3534 6.16184Z" fill="white"/>
</svg>
