<svg width="32" height="35" viewBox="0 0 32 35" fill="none" xmlns="http://www.w3.org/2000/svg">
<path d="M0.835938 28.1693V23.3859C0.835938 22.4179 1.08535 21.5278 1.58419 20.7158C2.08302 19.9038 2.74472 19.2848 3.56927 18.8589C5.33455 17.9762 7.1283 17.314 8.95052 16.8721C10.7727 16.4302 12.6234 16.2098 14.5026 16.2109C15.072 16.2109 15.6415 16.2326 16.2109 16.2759C16.7804 16.3191 17.3498 16.3829 17.9193 16.4672V19.9266C17.3498 19.8127 16.7804 19.7341 16.2109 19.6908C15.6415 19.6475 15.072 19.6265 14.5026 19.6276C12.9082 19.6276 11.328 19.8201 9.76198 20.205C8.19601 20.59 6.64427 21.1662 5.10677 21.9339C4.85052 22.0762 4.64381 22.2755 4.48665 22.5318C4.32948 22.788 4.25147 23.0727 4.2526 23.3859V24.7526H17.9193V28.1693H0.835938ZM14.5026 14.5026C12.6234 14.5026 11.0148 13.8335 9.67656 12.4953C8.33837 11.1571 7.66927 9.54844 7.66927 7.66927C7.66927 5.7901 8.33837 4.18142 9.67656 2.84323C11.0148 1.50503 12.6234 0.835938 14.5026 0.835938C16.3818 0.835938 17.9905 1.50503 19.3286 2.84323C20.6668 4.18142 21.3359 5.7901 21.3359 7.66927C21.3359 9.54844 20.6668 11.1571 19.3286 12.4953C17.9905 13.8335 16.3818 14.5026 14.5026 14.5026ZM14.5026 11.0859C15.4422 11.0859 16.2468 10.7511 16.9165 10.0814C17.5861 9.41177 17.9204 8.60772 17.9193 7.66927C17.9193 6.72969 17.5844 5.92506 16.9148 5.2554C16.2451 4.58573 15.441 4.25147 14.5026 4.2526C13.563 4.2526 12.7584 4.58744 12.0887 5.2571C11.4191 5.92677 11.0848 6.73083 11.0859 7.66927C11.0859 8.60885 11.4208 9.41348 12.0904 10.0831C12.7601 10.7528 13.5642 11.0871 14.5026 11.0859ZM24.7526 35.0026V26.4609H21.3359V16.2109H31.5859L28.1693 23.0443H31.5859L24.7526 35.0026Z" fill="white"/>
</svg>
