<svg width="41" height="37" viewBox="0 0 41 37" fill="none" xmlns="http://www.w3.org/2000/svg">
<path fill-rule="evenodd" clip-rule="evenodd" d="M20.4974 0.562501C20.9049 0.562058 21.302 0.691145 21.6313 0.931119C21.9607 1.17109 22.2052 1.50953 22.3296 1.89756L30.75 28.2119L34.0454 17.9158C34.1692 17.5277 34.4132 17.189 34.742 16.9485C35.0709 16.7081 35.4676 16.5784 35.875 16.5781H39.0781C39.5878 16.5781 40.0767 16.7806 40.4371 17.141C40.7975 17.5015 41 17.9903 41 18.5C41 19.0097 40.7975 19.4986 40.4371 19.859C40.0767 20.2194 39.5878 20.4219 39.0781 20.4219H37.2767L32.5796 35.1024C32.4551 35.4898 32.2108 35.8276 31.882 36.0672C31.5532 36.3069 31.1569 36.436 30.75 36.436C30.3431 36.436 29.9468 36.3069 29.618 36.0672C29.2892 35.8276 29.0449 35.4898 28.9204 35.1024L20.5128 8.82913L14.6447 27.4072C14.5236 27.7901 14.2857 28.1254 13.9643 28.3661C13.643 28.6067 13.2543 28.7407 12.8529 28.7492C12.4514 28.7577 12.0574 28.6402 11.7262 28.4133C11.3949 28.1864 11.1431 27.8615 11.0059 27.4841L7.76694 18.5769L7.58756 19.1099C7.46015 19.4924 7.21566 19.8252 6.88868 20.0611C6.56171 20.297 6.16882 20.4241 5.76562 20.4244H1.92188C1.41216 20.4244 0.923326 20.222 0.562904 19.8615C0.202483 19.5011 0 19.0123 0 18.5026C0 17.9929 0.202483 17.504 0.562904 17.1436C0.923326 16.7832 1.41216 16.5807 1.92188 16.5807H4.38188L5.863 12.1296C5.98856 11.7505 6.22911 11.4199 6.55121 11.1838C6.87331 10.9477 7.26097 10.8178 7.6603 10.8122C8.05963 10.8065 8.4508 10.9254 8.77943 11.1524C9.10807 11.3793 9.35785 11.703 9.49406 12.0784L12.6844 20.8549L18.6678 1.90781C18.7903 1.51829 19.0337 1.1779 19.3627 0.936012C19.6916 0.69412 20.0891 0.563293 20.4974 0.562501Z" fill="white"/>
</svg>
