<svg width="39" height="42" viewBox="0 0 39 42" fill="none" xmlns="http://www.w3.org/2000/svg">
<path d="M16.9025 0.0195313C20.9779 0.019797 24.914 1.50254 27.9767 4.19117C31.0394 6.87981 33.0195 10.5907 33.5477 14.6318L38.2681 22.0564C38.5786 22.5453 38.5156 23.2732 37.796 23.5837L33.6861 25.3418V31.4888C33.6861 32.6017 33.2441 33.6689 32.4572 34.4558C31.6703 35.2427 30.603 35.6847 29.4902 35.6847H25.2964L25.2943 41.9786H6.41274V34.2288C6.41274 31.7532 5.49803 29.4098 3.80079 27.295C1.82389 24.8267 0.584583 21.8501 0.225652 18.7081C-0.133279 15.5661 0.402775 12.3867 1.77205 9.53609C3.14132 6.68549 5.2881 4.27976 7.96503 2.59606C10.642 0.912359 13.7401 0.019214 16.9025 0.0195313ZM16.9025 4.21544C14.5309 4.21534 12.2076 4.8852 10.2001 6.14786C8.1926 7.41051 6.58264 9.2146 5.55568 11.3523C4.52871 13.49 4.12653 15.8743 4.39545 18.2305C4.66437 20.5868 5.59346 22.8192 7.07569 24.6705C9.37085 27.5321 10.6086 30.7902 10.6086 34.2288V37.7827H21.0984L21.1026 31.4888H29.4902V22.5767L32.7421 21.1837L29.5049 16.0961L29.3853 15.1688C28.9882 12.1392 27.5028 9.35741 25.206 7.34209C22.9093 5.32676 19.9581 4.21548 16.9025 4.21544ZM15.7906 12.11L16.9025 13.222L18.0144 12.11C18.7067 11.4411 19.6341 11.0709 20.5967 11.079C21.5593 11.0872 22.4802 11.4731 23.1611 12.1537C23.8419 12.8343 24.2282 13.755 24.2368 14.7177C24.2454 15.6803 23.8755 16.6078 23.2069 17.3004L16.9025 23.6068L10.5982 17.3004C10.2476 16.9616 9.96795 16.5564 9.77563 16.1085C9.58331 15.6605 9.48212 15.1787 9.47798 14.6912C9.47385 14.2038 9.56684 13.7203 9.75153 13.2692C9.93623 12.818 10.2089 12.4081 10.5537 12.0635C10.8985 11.7188 11.3085 11.4463 11.7597 11.2618C12.211 11.0773 12.6944 10.9845 13.1819 10.9888C13.6694 10.9931 14.1511 11.0945 14.599 11.287C15.0469 11.4795 15.452 11.7593 15.7906 12.11Z" fill="white"/>
</svg>
