<svg width="40" height="40" viewBox="0 0 40 40" fill="none" xmlns="http://www.w3.org/2000/svg">
<path d="M20.1766 0.748047C9.57256 0.748047 0.976562 9.34405 0.976562 19.948C0.976562 30.552 9.57256 39.148 20.1766 39.148C30.7806 39.148 39.3766 30.552 39.3766 19.948C39.3766 9.34405 30.7806 0.748047 20.1766 0.748047ZM27.9866 16.476C27.9946 16.64 27.9966 16.804 27.9966 16.964C27.9966 21.964 24.1946 27.726 17.2386 27.726C15.1832 27.7295 13.1705 27.1391 11.4426 26.026C11.7366 26.062 12.0386 26.076 12.3446 26.076C14.1166 26.076 15.7466 25.474 17.0406 24.458C16.252 24.4426 15.4879 24.1814 14.8548 23.7111C14.2217 23.2407 13.7511 22.5846 13.5086 21.834C14.0749 21.9417 14.6583 21.9192 15.2146 21.768C14.3587 21.595 13.589 21.1312 13.036 20.4554C12.483 19.7796 12.1808 18.9333 12.1806 18.06V18.014C12.6906 18.296 13.2746 18.468 13.8946 18.488C13.0922 17.9539 12.5241 17.1334 12.3067 16.1943C12.0892 15.2552 12.2387 14.2686 12.7246 13.436C13.6745 14.604 14.8591 15.5595 16.2017 16.2407C17.5443 16.9218 19.015 17.3134 20.5186 17.39C20.3274 16.5787 20.4097 15.7269 20.7526 14.9671C21.0955 14.2073 21.6798 13.582 22.4147 13.1886C23.1496 12.7951 23.9939 12.6555 24.8163 12.7914C25.6388 12.9273 26.3933 13.3311 26.9626 13.94C27.8089 13.7726 28.6205 13.4622 29.3626 13.022C29.0805 13.8983 28.4899 14.6424 27.7006 15.116C28.4503 15.0258 29.1823 14.8242 29.8726 14.518C29.3655 15.2778 28.7268 15.9409 27.9866 16.476V16.476Z" fill="#3D445C"/>
</svg>
