<svg width="41" height="41" viewBox="0 0 41 41" fill="none" xmlns="http://www.w3.org/2000/svg">
<rect width="41" height="41" fill="#2E2E2E"/>
<path d="M-675 -11141C-675 -11142.1 -674.105 -11143 -673 -11143H4991C4992.1 -11143 4993 -11142.1 4993 -11141V6711C4993 6712.1 4992.1 6713 4991 6713H-673C-674.105 6713 -675 6712.1 -675 6711V-11141Z" fill="#FFFFE7"/>
<rect width="1728" height="10724" transform="translate(-381 -10486)" fill="white"/>
<rect width="1728" height="431" transform="translate(-367 -351)" fill="white"/>
<circle cx="20.1758" cy="20.9473" r="20" fill="#3D445C"/>
<g clip-path="url(#clip0_221_376)">
<path d="M29.8393 14.9029C29.7304 14.3888 29.5086 13.9177 29.1964 13.5373C28.8841 13.1568 28.4925 12.8805 28.0609 12.7363C26.4843 12.2813 20.1776 12.2812 20.1776 12.2812C20.1776 12.2812 13.8709 12.2813 12.2943 12.7796C11.8628 12.9239 11.4711 13.2002 11.1588 13.5806C10.8466 13.961 10.6248 14.4321 10.5159 14.9462C10.2274 16.8373 10.0862 18.7556 10.0943 20.6771C10.084 22.613 10.2251 24.546 10.5159 26.4512C10.636 26.9494 10.8627 27.4026 11.1742 27.7669C11.4858 28.1313 11.8715 28.3945 12.2943 28.5312C13.8709 29.0296 20.1776 29.0296 20.1776 29.0296C20.1776 29.0296 26.4843 29.0296 28.0609 28.5312C28.4925 28.387 28.8841 28.1107 29.1964 27.7302C29.5086 27.3498 29.7304 26.8787 29.8393 26.3646C30.1256 24.4878 30.2667 22.5841 30.2609 20.6771C30.2712 18.7411 30.1301 16.8082 29.8393 14.9029V14.9029Z" stroke="white" stroke-width="2" stroke-linecap="round" stroke-linejoin="round"/>
<path d="M18.1133 24.2198L23.3841 20.6773L18.1133 17.1348V24.2198Z" stroke="white" stroke-width="2" stroke-linecap="round" stroke-linejoin="round"/>
</g>
<path d="M-673 -11142H4991V-11144H-673V-11142ZM4992 -11141V6711H4994V-11141H4992ZM4991 6712H-673V6714H4991V6712ZM-674 6711V-11141H-676V6711H-674ZM-673 6712C-673.552 6712 -674 6711.55 -674 6711H-676C-676 6712.66 -674.657 6714 -673 6714V6712ZM4992 6711C4992 6711.55 4991.55 6712 4991 6712V6714C4992.66 6714 4994 6712.66 4994 6711H4992ZM4991 -11142C4991.55 -11142 4992 -11141.6 4992 -11141H4994C4994 -11142.7 4992.66 -11144 4991 -11144V-11142ZM-673 -11144C-674.657 -11144 -676 -11142.7 -676 -11141H-674C-674 -11141.6 -673.552 -11142 -673 -11142V-11144Z" fill="black" fill-opacity="0.1"/>
<defs>
<clipPath id="clip0_221_376">
<rect width="22" height="26" fill="white" transform="translate(9.17578 7.94727)"/>
</clipPath>
</defs>
</svg>
