<svg width="40" height="40" viewBox="0 0 40 40" fill="none" xmlns="http://www.w3.org/2000/svg">
<path d="M20.1766 0.748047C9.57256 0.748047 0.976562 9.34405 0.976562 19.948C0.976562 30.552 9.57256 39.148 20.1766 39.148C30.7806 39.148 39.3766 30.552 39.3766 19.948C39.3766 9.34405 30.7806 0.748047 20.1766 0.748047ZM15.4766 27.906H11.5886V15.394H15.4766V27.906ZM13.5086 13.858C12.2806 13.858 11.4866 12.988 11.4866 11.912C11.4866 10.814 12.3046 9.97005 13.5586 9.97005C14.8126 9.97005 15.5806 10.814 15.6046 11.912C15.6046 12.988 14.8126 13.858 13.5086 13.858ZM29.6766 27.906H25.7886V20.972C25.7886 19.358 25.2246 18.262 23.8186 18.262C22.7446 18.262 22.1066 19.004 21.8246 19.718C21.7206 19.972 21.6946 20.332 21.6946 20.69V27.904H17.8046V19.384C17.8046 17.822 17.7546 16.516 17.7026 15.392H21.0806L21.2586 17.13H21.3366C21.8486 16.314 23.1026 15.11 25.2006 15.11C27.7586 15.11 29.6766 16.824 29.6766 20.508V27.906V27.906Z" fill="#3D445C"/>
</svg>
