<svg width="41" height="41" viewBox="0 0 41 41" fill="none" xmlns="http://www.w3.org/2000/svg">
<rect width="41" height="41" fill="#2E2E2E"/>
<path d="M-614 -11139C-614 -11140.1 -613.105 -11141 -612 -11141H5052C5053.1 -11141 5054 -11140.1 5054 -11139V6713C5054 6714.1 5053.1 6715 5052 6715H-612C-613.105 6715 -614 6714.1 -614 6713V-11139Z" fill="#FFFFE7"/>
<rect width="1728" height="10724" transform="translate(-320 -10484)" fill="white"/>
<rect width="1728" height="431" transform="translate(-306 -349)" fill="white"/>
<circle cx="20.1758" cy="20.9473" r="20" fill="#3D445C"/>
<path d="M25.1758 11.9473H15.1758C12.4144 11.9473 10.1758 14.1858 10.1758 16.9473V26.9473C10.1758 29.7087 12.4144 31.9473 15.1758 31.9473H25.1758C27.9372 31.9473 30.1758 29.7087 30.1758 26.9473V16.9473C30.1758 14.1858 27.9372 11.9473 25.1758 11.9473Z" stroke="white" stroke-width="2" stroke-linecap="round" stroke-linejoin="round"/>
<path d="M24.1755 21.3176C24.2989 22.1498 24.1567 22.9998 23.7692 23.7466C23.3817 24.4934 22.7686 25.099 22.0171 25.4772C21.2656 25.8555 20.4139 25.9872 19.5833 25.8535C18.7526 25.7198 17.9852 25.3276 17.3903 24.7327C16.7954 24.1378 16.4032 23.3704 16.2696 22.5398C16.1359 21.7091 16.2676 20.8575 16.6458 20.1059C17.0241 19.3544 17.6297 18.7413 18.3765 18.3538C19.1233 17.9663 19.9732 17.8242 20.8055 17.9476C21.6544 18.0735 22.4403 18.469 23.0472 19.0759C23.654 19.6827 24.0496 20.4686 24.1755 21.3176Z" stroke="white" stroke-width="2" stroke-linecap="round" stroke-linejoin="round"/>
<path d="M25.6758 16.4473H25.6858" stroke="white" stroke-width="2" stroke-linecap="round" stroke-linejoin="round"/>
<path d="M-612 -11140H5052V-11142H-612V-11140ZM5053 -11139V6713H5055V-11139H5053ZM5052 6714H-612V6716H5052V6714ZM-613 6713V-11139H-615V6713H-613ZM-612 6714C-612.552 6714 -613 6713.55 -613 6713H-615C-615 6714.66 -613.657 6716 -612 6716V6714ZM5053 6713C5053 6713.55 5052.55 6714 5052 6714V6716C5053.66 6716 5055 6714.66 5055 6713H5053ZM5052 -11140C5052.55 -11140 5053 -11139.6 5053 -11139H5055C5055 -11140.7 5053.66 -11142 5052 -11142V-11140ZM-612 -11142C-613.657 -11142 -615 -11140.7 -615 -11139H-613C-613 -11139.6 -612.552 -11140 -612 -11140V-11142Z" fill="black" fill-opacity="0.1"/>
</svg>
