<svg width="37" height="34" viewBox="0 0 37 34" fill="none" xmlns="http://www.w3.org/2000/svg">
<path d="M19.6549 18.25C19.6549 18.9404 19.0396 19.5 18.2805 19.5C17.5215 19.5 16.9062 18.9404 16.9062 18.25C16.9062 17.5596 17.5215 17 18.2805 17C19.0396 17 19.6549 17.5596 19.6549 18.25Z" fill="#1A0B74"/>
<path d="M10.0345 23.25C10.7935 23.25 11.4088 22.6904 11.4088 22C11.4088 21.3096 10.7935 20.75 10.0345 20.75C9.27545 20.75 8.66013 21.3096 8.66013 22C8.66013 22.6904 9.27545 23.25 10.0345 23.25Z" fill="#1A0B74"/>
<path d="M11.4088 25.75C11.4088 26.4404 10.7935 27 10.0345 27C9.27545 27 8.66013 26.4404 8.66013 25.75C8.66013 25.0596 9.27545 24.5 10.0345 24.5C10.7935 24.5 11.4088 25.0596 11.4088 25.75Z" fill="#1A0B74"/>
<path d="M14.1575 23.25C14.9165 23.25 15.5319 22.6904 15.5319 22C15.5319 21.3096 14.9165 20.75 14.1575 20.75C13.3985 20.75 12.7832 21.3096 12.7832 22C12.7832 22.6904 13.3985 23.25 14.1575 23.25Z" fill="#1A0B74"/>
<path d="M15.5319 25.75C15.5319 26.4404 14.9165 27 14.1575 27C13.3985 27 12.7832 26.4404 12.7832 25.75C12.7832 25.0596 13.3985 24.5 14.1575 24.5C14.9165 24.5 15.5319 25.0596 15.5319 25.75Z" fill="#1A0B74"/>
<path d="M18.2805 23.25C19.0396 23.25 19.6549 22.6904 19.6549 22C19.6549 21.3096 19.0396 20.75 18.2805 20.75C17.5215 20.75 16.9062 21.3096 16.9062 22C16.9062 22.6904 17.5215 23.25 18.2805 23.25Z" fill="#1A0B74"/>
<path d="M19.6549 25.75C19.6549 26.4404 19.0396 27 18.2805 27C17.5215 27 16.9062 26.4404 16.9062 25.75C16.9062 25.0596 17.5215 24.5 18.2805 24.5C19.0396 24.5 19.6549 25.0596 19.6549 25.75Z" fill="#1A0B74"/>
<path d="M22.4036 23.25C23.1626 23.25 23.7779 22.6904 23.7779 22C23.7779 21.3096 23.1626 20.75 22.4036 20.75C21.6445 20.75 21.0292 21.3096 21.0292 22C21.0292 22.6904 21.6445 23.25 22.4036 23.25Z" fill="#1A0B74"/>
<path d="M23.7779 25.75C23.7779 26.4404 23.1626 27 22.4036 27C21.6445 27 21.0292 26.4404 21.0292 25.75C21.0292 25.0596 21.6445 24.5 22.4036 24.5C23.1626 24.5 23.7779 25.0596 23.7779 25.75Z" fill="#1A0B74"/>
<path d="M26.5266 23.25C27.2856 23.25 27.901 22.6904 27.901 22C27.901 21.3096 27.2856 20.75 26.5266 20.75C25.7676 20.75 25.1523 21.3096 25.1523 22C25.1523 22.6904 25.7676 23.25 26.5266 23.25Z" fill="#1A0B74"/>
<path d="M23.7779 18.25C23.7779 18.9404 23.1626 19.5 22.4036 19.5C21.6445 19.5 21.0292 18.9404 21.0292 18.25C21.0292 17.5596 21.6445 17 22.4036 17C23.1626 17 23.7779 17.5596 23.7779 18.25Z" fill="#1A0B74"/>
<path d="M26.5266 19.5C27.2856 19.5 27.901 18.9404 27.901 18.25C27.901 17.5596 27.2856 17 26.5266 17C25.7676 17 25.1523 17.5596 25.1523 18.25C25.1523 18.9404 25.7676 19.5 26.5266 19.5Z" fill="#1A0B74"/>
<path fill-rule="evenodd" clip-rule="evenodd" d="M8.66013 0.75C9.41916 0.75 10.0345 1.30964 10.0345 2V4.5H26.5266V2C26.5266 1.30964 27.1419 0.75 27.901 0.75C28.66 0.75 29.2753 1.30964 29.2753 2V4.5H30.6496C33.6858 4.5 36.147 6.73858 36.147 9.5V28.25C36.147 31.0114 33.6858 33.25 30.6496 33.25H5.91144C2.87532 33.25 0.414062 31.0114 0.414062 28.25V9.5C0.414062 6.73858 2.87532 4.5 5.91144 4.5H7.28579V2C7.28579 1.30964 7.9011 0.75 8.66013 0.75ZM33.3983 15.75C33.3983 14.3693 32.1677 13.25 30.6496 13.25H5.91144C4.39338 13.25 3.16275 14.3693 3.16275 15.75V28.25C3.16275 29.6307 4.39338 30.75 5.91144 30.75H30.6496C32.1677 30.75 33.3983 29.6307 33.3983 28.25V15.75Z" fill="#1A0B74"/>
</svg>
