<svg width="39" height="31" viewBox="0 0 39 31" fill="none" xmlns="http://www.w3.org/2000/svg">
<path d="M24.8182 0C22.9376 0 21.134 0.816515 19.8042 2.26992C18.4743 3.72333 17.7273 5.69457 17.7273 7.75C17.7273 9.80543 18.4743 11.7767 19.8042 13.2301C21.134 14.6835 22.9376 15.5 24.8182 15.5C26.6988 15.5 28.5024 14.6835 29.8322 13.2301C31.162 11.7767 31.9091 9.80543 31.9091 7.75C31.9091 5.69457 31.162 3.72333 29.8322 2.26992C28.5024 0.816515 26.6988 0 24.8182 0ZM24.8182 3.68125C25.3071 3.68125 25.7911 3.78649 26.2428 3.99097C26.6945 4.19544 27.1049 4.49514 27.4505 4.87296C27.7962 5.25078 28.0704 5.69931 28.2575 6.19296C28.4446 6.6866 28.5409 7.21568 28.5409 7.75C28.5409 8.28432 28.4446 8.8134 28.2575 9.30704C28.0704 9.80069 27.7962 10.2492 27.4505 10.627C27.1049 11.0049 26.6945 11.3046 26.2428 11.509C25.7911 11.7135 25.3071 11.8188 24.8182 11.8188C24.3293 11.8188 23.8452 11.7135 23.3936 11.509C22.9419 11.3046 22.5315 11.0049 22.1858 10.627C21.8401 10.2492 21.5659 9.80069 21.3788 9.30704C21.1917 8.8134 21.0955 8.28432 21.0955 7.75C21.0955 6.6709 21.4877 5.636 22.1858 4.87296C22.884 4.10992 23.8309 3.68125 24.8182 3.68125ZM5.31818 5.8125V11.625H0V15.5H5.31818V21.3125H8.86364V15.5H14.1818V11.625H8.86364V5.8125H5.31818ZM24.8182 17.4375C20.085 17.4375 10.6364 20.0144 10.6364 25.1875V31H39V25.1875C39 20.0144 29.5514 17.4375 24.8182 17.4375ZM24.8182 21.1187C30.0832 21.1187 35.6318 23.9475 35.6318 25.1875V27.3188H14.0045V25.1875C14.0045 23.9475 19.5 21.1187 24.8182 21.1187Z" fill="#1A0B74"/>
</svg>
