<svg width="40" height="28" viewBox="0 0 40 28" fill="none" xmlns="http://www.w3.org/2000/svg">
<path fill-rule="evenodd" clip-rule="evenodd" d="M6.44269 0.25C3.40657 0.25 0.945312 2.48858 0.945312 5.25V22.75C0.945312 25.5114 3.40657 27.75 6.44269 27.75H33.9296C36.9657 27.75 39.427 25.5114 39.427 22.75V5.25C39.427 2.48858 36.9657 0.25 33.9296 0.25H6.44269ZM14.0016 5.25C11.7245 5.25 9.87855 6.92893 9.87855 9C9.87855 11.0711 11.7245 12.75 14.0016 12.75C16.2787 12.75 18.1246 11.0711 18.1246 9C18.1246 6.92893 16.2787 5.25 14.0016 5.25ZM6.90431 19.7546C7.96527 17.1274 10.7406 15.25 14.0015 15.25C17.2624 15.25 20.0377 17.1274 21.0987 19.7546C21.3353 20.3405 21.0605 20.9954 20.4548 21.2888C18.5292 22.2218 16.3311 22.75 14.0015 22.75C11.6719 22.75 9.47382 22.2218 7.54823 21.2888C6.94255 20.9954 6.6677 20.3405 6.90431 19.7546ZM25.6835 7.75C24.9245 7.75 24.3092 8.30964 24.3092 9C24.3092 9.69036 24.9245 10.25 25.6835 10.25H32.5552C33.3143 10.25 33.9296 9.69036 33.9296 9C33.9296 8.30964 33.3143 7.75 32.5552 7.75H25.6835ZM24.3092 14C24.3092 13.3096 24.9245 12.75 25.6835 12.75H32.5552C33.3143 12.75 33.9296 13.3096 33.9296 14C33.9296 14.6904 33.3143 15.25 32.5552 15.25H25.6835C24.9245 15.25 24.3092 14.6904 24.3092 14ZM25.6835 17.75C24.9245 17.75 24.3092 18.3096 24.3092 19C24.3092 19.6904 24.9245 20.25 25.6835 20.25H32.5552C33.3143 20.25 33.9296 19.6904 33.9296 19C33.9296 18.3096 33.3143 17.75 32.5552 17.75H25.6835Z" fill="#07235B"/>
</svg>
