<svg width="33" height="21" viewBox="0 0 33 21" fill="none" xmlns="http://www.w3.org/2000/svg">
<path d="M7.70156 0V7M25.3016 0V7M6.60156 10.5H13.2016M26.4016 10.5H19.8016M6.60156 14.7H13.2016M19.8016 14.7H26.4016M3.30156 3.5H29.7016C30.285 3.5 30.8446 3.6475 31.2572 3.91005C31.6698 4.1726 31.9016 4.5287 31.9016 4.9V18.9C31.9016 19.2713 31.6698 19.6274 31.2572 19.8899C30.8446 20.1525 30.285 20.3 29.7016 20.3H3.30156C2.71809 20.3 2.15851 20.1525 1.74593 19.8899C1.33335 19.6274 1.10156 19.2713 1.10156 18.9V4.9C1.10156 4.5287 1.33335 4.1726 1.74593 3.91005C2.15851 3.6475 2.71809 3.5 3.30156 3.5Z" stroke="#07235B"/>
</svg>
