<svg width="38" height="31" viewBox="0 0 38 31" fill="none" xmlns="http://www.w3.org/2000/svg">
<path d="M18.8264 12.8817C22.1938 12.8817 24.9235 10.2114 24.9235 6.91741C24.9235 3.62343 22.1938 0.953125 18.8264 0.953125C15.4591 0.953125 12.7293 3.62343 12.7293 6.91741C12.7293 10.2114 15.4591 12.8817 18.8264 12.8817Z" fill="#053E66"/>
<path d="M10.697 10.8936C10.697 13.0896 8.87714 14.8698 6.63225 14.8698C4.38736 14.8698 2.56752 13.0896 2.56752 10.8936C2.56752 8.69761 4.38736 6.91741 6.63225 6.91741C8.87714 6.91741 10.697 8.69761 10.697 10.8936Z" fill="#053E66"/>
<path d="M1.53232 25.4577C1.18768 25.2617 0.921738 24.953 0.80438 24.5803C0.629369 24.0245 0.535156 23.4341 0.535156 22.8222C0.535156 19.5282 3.26492 16.8579 6.63225 16.8579C7.69315 16.8579 8.69077 17.1229 9.55967 17.5891C7.43156 19.6389 6.01062 22.3898 5.68676 25.4598C5.64006 25.9025 5.65955 26.3395 5.73793 26.7604C4.21497 26.6305 2.78827 26.172 1.53232 25.4577Z" fill="#053E66"/>
<path d="M31.9158 26.7603C33.4385 26.6303 34.8649 26.1718 36.1206 25.4577C36.4652 25.2617 36.7311 24.953 36.8485 24.5803C37.0235 24.0245 37.1177 23.4341 37.1177 22.8222C37.1177 19.5282 34.388 16.8579 31.0206 16.8579C29.96 16.8579 28.9625 17.1228 28.0938 17.5888C30.2221 19.6387 31.6431 22.3897 31.967 25.4598C32.0137 25.9025 31.9942 26.3394 31.9158 26.7603Z" fill="#053E66"/>
<path d="M35.0854 10.8936C35.0854 13.0896 33.2655 14.8698 31.0206 14.8698C28.7757 14.8698 26.9559 13.0896 26.9559 10.8936C26.9559 8.69761 28.7757 6.91741 31.0206 6.91741C33.2655 6.91741 35.0854 8.69761 35.0854 10.8936Z" fill="#053E66"/>
<path d="M9.28212 27.1779C8.87746 26.8195 8.66303 26.297 8.71906 25.7659C9.24703 20.7611 13.5709 16.8579 18.8267 16.8579C24.0826 16.8579 28.4064 20.7611 28.9344 25.7659C28.9904 26.2971 28.776 26.8196 28.3714 27.1779C25.8473 29.4131 22.4996 30.7746 18.8267 30.7746C15.1539 30.7746 11.8062 29.4131 9.28212 27.1779Z" fill="#053E66"/>
</svg>
