<svg width="34" height="35" viewBox="0 0 34 35" fill="none" xmlns="http://www.w3.org/2000/svg">
<path d="M8 0V11.6667M26.6667 0V11.6667M6.83333 17.5H13.8333M27.8333 17.5H20.8333M6.83333 24.5H13.8333M20.8333 24.5H27.8333M3.33333 5.83333H31.3333C31.9522 5.83333 32.5457 6.07917 32.9833 6.51675C33.4208 6.95434 33.6667 7.54783 33.6667 8.16667V31.5C33.6667 32.1188 33.4208 32.7123 32.9833 33.1499C32.5457 33.5875 31.9522 33.8333 31.3333 33.8333H3.33333C2.71449 33.8333 2.121 33.5875 1.68342 33.1499C1.24583 32.7123 1 32.1188 1 31.5V8.16667C1 7.54783 1.24583 6.95434 1.68342 6.51675C2.121 6.07917 2.71449 5.83333 3.33333 5.83333Z" stroke="#07235B"/>
</svg>
