<svg width="35" height="30" viewBox="0 0 35 30" fill="none" xmlns="http://www.w3.org/2000/svg">
<path d="M5.16407 25C4.31615 25 3.59003 24.6733 2.98569 24.02C2.38136 23.3667 2.07971 22.5822 2.08073 21.6667V3.33334C2.08073 2.41667 2.3829 1.63167 2.98723 0.978336C3.59157 0.325003 4.31718 -0.00110828 5.16407 2.82966e-06H29.8307C30.6787 2.82966e-06 31.4048 0.32667 32.0091 0.980003C32.6134 1.63334 32.9151 2.41778 32.9141 3.33334V21.6667C32.9141 22.5833 32.6119 23.3683 32.0076 24.0217C31.4032 24.675 30.6776 25.0011 29.8307 25H5.16407ZM5.16407 21.6667H29.8307V3.33334H5.16407V21.6667ZM2.08073 30C1.64393 30 1.27753 29.84 0.981526 29.52C0.685526 29.2 0.53804 28.8044 0.539068 28.3333C0.539068 27.8611 0.687068 27.465 0.983068 27.145C1.27907 26.825 1.64496 26.6656 2.08073 26.6667H32.9141C33.3509 26.6667 33.7173 26.8267 34.0133 27.1467C34.3093 27.4667 34.4568 27.8622 34.4557 28.3333C34.4557 28.8056 34.3077 29.2017 34.0117 29.5217C33.7157 29.8417 33.3498 30.0011 32.9141 30H2.08073Z" fill="#1A0B74"/>
</svg>
