<svg width="26" height="30" viewBox="0 0 26 30" fill="none" xmlns="http://www.w3.org/2000/svg">
<path d="M5.75078 0.996533C2.63867 1.03403 0.93125 4.51528 0.949414 6.43216C1.04023 9.38841 3.02012 11.3947 5.47832 13.6072C7.62168 15.5322 10.0859 17.5572 11.5875 20.4822C11.5936 20.4759 11.5936 20.4697 11.5996 20.4634C11.6057 20.4697 11.6057 20.4759 11.6117 20.4822C13.1133 17.5572 15.5775 15.5322 17.7209 13.6072C20.1791 11.3947 22.159 9.38841 22.2498 6.43216C22.268 4.51528 20.5605 1.03403 17.4484 0.996533C15.1477 0.965283 12.4473 2.60278 11.5996 5.22778C10.752 2.60278 8.05156 0.965283 5.75078 0.996533ZM-2.50781 22.7947V29.9197H25.707V22.7947H-2.50781ZM-1.41797 23.9197H24.6172V28.7947H16.3223V25.0447H-1.41797V23.9197Z" fill="#07235B"/>
</svg>
