<svg width="34" height="29" viewBox="0 0 34 29" fill="none" xmlns="http://www.w3.org/2000/svg">
<path d="M7.19922 4.32422C7.19922 3.77721 7.44944 3.2526 7.89484 2.86581C8.34024 2.47902 8.94433 2.26172 9.57422 2.26172C10.2041 2.26172 10.8082 2.47902 11.2536 2.86581C11.699 3.2526 11.9492 3.77721 11.9492 4.32422C11.9492 4.87123 11.699 5.39583 11.2536 5.78263C10.8082 6.16942 10.2041 6.38672 9.57422 6.38672C8.94433 6.38672 8.34024 6.16942 7.89484 5.78263C7.44944 5.39583 7.19922 4.87123 7.19922 4.32422ZM9.57422 0.199219C8.31444 0.199219 7.10626 0.633816 6.21546 1.4074C5.32466 2.18099 4.82422 3.2302 4.82422 4.32422C4.82422 5.41824 5.32466 6.46745 6.21546 7.24103C7.10626 8.01462 8.31444 8.44922 9.57422 8.44922C10.834 8.44922 12.0422 8.01462 12.933 7.24103C13.8238 6.46745 14.3242 5.41824 14.3242 4.32422C14.3242 3.2302 13.8238 2.18099 12.933 1.4074C12.0422 0.633816 10.834 0.199219 9.57422 0.199219ZM3.04297 10.5117C2.25561 10.5117 1.50049 10.7833 0.943745 11.2668C0.386997 11.7503 0.0742188 12.4061 0.0742188 13.0898V13.3477C0.0742188 13.6313 0.0742186 15.2503 1.32584 16.8127C2.22478 17.9347 3.68066 18.9236 5.95591 19.432C6.41462 18.6705 7.13462 18.0518 8.01622 17.6614C5.24934 17.4025 3.93478 16.4579 3.27572 15.635C2.74529 14.9605 2.45762 14.1644 2.44922 13.3477V13.0898C2.44922 12.9531 2.51177 12.8219 2.62312 12.7252C2.73447 12.6285 2.8855 12.5742 3.04297 12.5742H10.168C10.168 11.8462 10.3259 11.1511 10.6133 10.5117H3.04297ZM32.0726 16.8127C31.1737 17.9347 29.7178 18.9236 27.4425 19.432C26.9838 18.6706 26.2638 18.0518 25.3822 17.6614C28.1491 17.4025 29.4637 16.4579 30.1227 15.635C30.6531 14.9605 30.9408 14.1644 30.9492 13.3477V13.0898C30.9492 12.9531 30.8867 12.8219 30.7753 12.7252C30.664 12.6285 30.5129 12.5742 30.3555 12.5742H23.2305C23.2305 11.8462 23.0725 11.1511 22.7852 10.5117H30.3555C31.1428 10.5117 31.8979 10.7833 32.4547 11.2668C33.0114 11.7503 33.3242 12.4061 33.3242 13.0898V13.3477C33.3242 13.6313 33.3242 15.2503 32.0726 16.8127ZM21.4492 4.32422C21.4492 3.77721 21.6994 3.2526 22.1448 2.86581C22.5902 2.47902 23.1943 2.26172 23.8242 2.26172C24.4541 2.26172 25.0582 2.47902 25.5036 2.86581C25.949 3.2526 26.1992 3.77721 26.1992 4.32422C26.1992 4.87123 25.949 5.39583 25.5036 5.78263C25.0582 6.16942 24.4541 6.38672 23.8242 6.38672C23.1943 6.38672 22.5902 6.16942 22.1448 5.78263C21.6994 5.39583 21.4492 4.87123 21.4492 4.32422ZM23.8242 0.199219C22.5644 0.199219 21.3563 0.633816 20.4655 1.4074C19.5747 2.18099 19.0742 3.2302 19.0742 4.32422C19.0742 5.41824 19.5747 6.46745 20.4655 7.24103C21.3563 8.01462 22.5644 8.44922 23.8242 8.44922C25.084 8.44922 26.2922 8.01462 27.183 7.24103C28.0738 6.46745 28.5742 5.41824 28.5742 4.32422C28.5742 3.2302 28.0738 2.18099 27.183 1.4074C26.2922 0.633816 25.084 0.199219 23.8242 0.199219ZM16.6992 10.5117C16.0693 10.5117 15.4652 10.729 15.0198 11.1158C14.5744 11.5026 14.3242 12.0272 14.3242 12.5742C14.3242 13.1212 14.5744 13.6458 15.0198 14.0326C15.4652 14.4194 16.0693 14.6367 16.6992 14.6367C17.3291 14.6367 17.9332 14.4194 18.3786 14.0326C18.824 13.6458 19.0742 13.1212 19.0742 12.5742C19.0742 12.0272 18.824 11.5026 18.3786 11.1158C17.9332 10.729 17.3291 10.5117 16.6992 10.5117ZM11.9492 12.5742C11.9492 11.4802 12.4497 10.431 13.3405 9.6574C14.2313 8.88382 15.4394 8.44922 16.6992 8.44922C17.959 8.44922 19.1672 8.88382 20.058 9.6574C20.9488 10.431 21.4492 11.4802 21.4492 12.5742C21.4492 13.6682 20.9488 14.7174 20.058 15.491C19.1672 16.2646 17.959 16.6992 16.6992 16.6992C15.4394 16.6992 14.2313 16.2646 13.3405 15.491C12.4497 14.7174 11.9492 13.6682 11.9492 12.5742ZM7.19922 21.3398C7.19922 20.6561 7.512 20.0003 8.06875 19.5168C8.62549 19.0333 9.38061 18.7617 10.168 18.7617H23.2305C23.6203 18.7617 24.0064 18.8284 24.3666 18.958C24.7267 19.0875 25.054 19.2774 25.3297 19.5168C25.6054 19.7562 25.824 20.0404 25.9732 20.3532C26.1224 20.666 26.1992 21.0013 26.1992 21.3398V21.5977C26.1992 21.8813 26.1992 23.5003 24.9476 25.0627C23.6413 26.6931 21.1595 28.043 16.6992 28.043C12.2402 28.043 9.75709 26.6931 8.45084 25.0627C7.19922 23.5003 7.19922 21.8823 7.19922 21.5977V21.3398ZM10.168 20.8242C10.0105 20.8242 9.85947 20.8785 9.74812 20.9752C9.63677 21.0719 9.57422 21.2031 9.57422 21.3398V21.5977C9.57422 21.7678 9.57541 22.8558 10.4007 23.885C11.1726 24.8492 12.847 25.9805 16.6992 25.9805C20.5527 25.9805 22.2258 24.8492 22.9977 23.885C23.5281 23.2105 23.8158 22.4144 23.8242 21.5977V21.3398C23.8242 21.2031 23.7617 21.0719 23.6503 20.9752C23.539 20.8785 23.3879 20.8242 23.2305 20.8242H10.168Z" fill="#0F2137"/>
</svg>
